<?xml version="1.0" standalone="no"?>
<!DOCTYPE svg PUBLIC "-//W3C//DTD SVG 20010904//EN"
 "http://www.w3.org/TR/2001/REC-SVG-20010904/DTD/svg10.dtd">
<svg version="1.0" xmlns="http://www.w3.org/2000/svg"
 width="1280.000000pt" height="1280.000000pt" viewBox="0 0 1280.000000 1280.000000"
 preserveAspectRatio="xMidYMid meet">

<g transform="translate(0.000000,1280.000000) scale(0.100000,-0.100000)"
fill="#000000" stroke="none">
<path d="M6080 11914 c-1039 -63 -1970 -375 -2815 -945 -312 -211 -531 -393
-816 -678 -164 -165 -423 -455 -463 -519 -5 -9 94 -12 418 -12 l426 0 0 145 0
145 180 0 180 0 0 -475 0 -475 -180 0 -180 0 0 145 0 145 -558 0 -558 0 -86
-142 c-482 -799 -747 -1675 -794 -2630 l-6 -138 991 0 991 0 0 145 0 145 180
0 180 0 0 -475 0 -475 -180 0 -180 0 0 145 0 145 -985 0 -985 0 0 -49 c0 -136
52 -538 101 -781 134 -663 417 -1357 773 -1897 l61 -93 528 0 527 0 0 150 0
150 180 0 180 0 0 -480 0 -480 -180 0 -179 0 -3 148 -3 147 -388 3 c-239 1
-387 -1 -385 -7 22 -63 504 -562 718 -745 1199 -1024 2761 -1483 4340 -1275
1285 169 2504 815 3374 1789 125 139 196 225 196 234 0 3 -467 5 -1037 4
l-1038 -3 -3 -148 -3 -147 -179 0 -180 0 0 480 0 480 180 0 180 0 0 -150 0
-150 1178 0 1177 0 68 104 c696 1073 997 2412 831 3696 -122 950 -483 1843
-1055 2605 -166 223 -306 382 -519 596 -292 293 -516 478 -840 694 -787 525
-1657 830 -2605 915 -124 11 -640 21 -755 14z m825 -1834 c1249 -59 2012 -472
2335 -1265 119 -292 165 -571 164 -985 0 -222 -4 -289 -23 -410 -98 -636 -378
-1106 -861 -1444 -305 -213 -696 -366 -1130 -440 -340 -58 -488 -66 -1302 -66
l-688 0 0 -1425 0 -1425 -570 0 -570 0 0 3735 0 3735 1218 0 c669 0 1311 -5
1427 -10z"/>
<path d="M5400 7785 l0 -1386 728 4 c616 3 745 7 842 21 580 85 914 270 1124
620 184 306 238 880 121 1281 -123 423 -430 673 -959 780 -270 55 -316 57
-1113 62 l-743 5 0 -1387z"/>
</g>
</svg>
